<?xml version="1.0" encoding="utf-8"?>
<?xml-stylesheet type="text/xsl" href="rss1.xsl"?>
<rss version="2.0" xmlns:atom="http://www.w3.org/2005/Atom" xmlns:content="http://purl.org/rss/1.0/modules/content/" xmlns:dc="http://purl.org/dc/elements/1.1/" xmlns:media="http://search.yahoo.com/mrss/">
<channel>
 <title>Getty</title>
 <link>http://www.gettyimg.com/</link>
 <atom:link href="http://www.gettyimg.com/" rel="self" type="application/rss+xml" />

 
                <item>
                <title><![CDATA[【HD Live Performances】FEED - Billie Eilish - What Was I Made For? (Live at The 66th Annual Grammy Awards 2024) FEED HDTV H264 1080i MP2-ilya2129]]></title>
                <link><![CDATA[https://sharemania.us/threads/billie-eilish-what-was-i-made-for-live-at-the-66th-annual-grammy-awards-2024-feed-hdtv-h264-1080i-mp2-ilya2129.237132/]]></link>
                <description><![CDATA[<article>
<blockquote class="messageText SelectQuoteContainer ugc baseHtml">
<div style="text-align: center"><img src="https://i.ibb.co/fXw1FbP/Billie-Eilish-What-Was-I-Made-For-Live-at-The-66th-Annual-Grammy-Awards-2024-FEED-HDTV-H264-1080i-MP.gif" class="bbCodeImage LbImage" alt="[​IMG]" data-url="https://i.ibb.co/fXw1FbP/Billie-Eilish-What-Was-I-Made-For-Live-at-The-66th-Annual-Grammy-Awards-2024-FEED-HDTV-H264-1080i-MP.gif" style=""><br>
Original video by <a href="http://sharemania.us/members/ilya2129.78522/" class="internalLink"><b>ilya2129 <img src="styles/default/xenforo/clear.png" class="mceSmilieSprite mceSmilie35" alt=":blush:" title="Blush    :blush:"></b></a><br>
I just splitted the Billie Eilish's performance from it<br>
<br>
<b>Media Info</b><br>
<div class="ToggleTriggerAnchor bbCodeSpoilerContainer">
<button type="button" class="button bbCodeSpoilerButton ToggleTrigger Tooltip JsOnly" data-target="> .SpoilerTarget"><span>Spoiler</span></button>
<div class="SpoilerTarget bbCodeSpoilerText">General<br>
Format : MPEG-TS<br>
File size : 795 MiB<br>
Duration : 3 min 51 s<br>
Overall bit rate mode : Variable<br>
Overall bit rate : 28.8 Mb/s<br>
Frame rate : 25.000 FPS<br>
<br>
Video<br>
ID : 256 (0x100)<br>
Menu ID : 1 (0x1)<br>
Format : AVC<br>
Format/Info : Advanced Video Codec<br>
Format profile : High@L4.1<br>
Format settings : CABAC / 4 Ref Frames<br>
Format settings, CABAC : Yes<br>
Format settings, Reference : 4 frames<br>
Codec ID : 27<br>
Duration : 3 min 51 s<br>
Bit rate : 27.0 Mb/s<br>
Width : 1 920 pixels<br>
Height : 1 080 pixels<br>
Display aspect ratio : 16:9<br>
Frame rate : 25.000 FPS<br>
Color space : YUV<br>
Chroma subsampling : 4:2:0<br>
Bit depth : 8 bits<br>
Scan type : Interlaced<br>
Scan type, store method : Separated fields<br>
Scan order : Top Field First<br>
Bits/(Pixel*Frame) : 0.521<br>
Stream size : 745 MiB (94%)<br>
Color range : Limited<br>
Color primaries : BT.709<br>
Transfer characteristics : BT.709<br>
Matrix coefficients : BT.709<br>
<br>
Audio<br>
ID : 257 (0x101)<br>
Menu ID : 1 (0x1)<br>
Format : MPEG Audio<br>
Format version : Version 1<br>
Format profile : Layer 2<br>
Codec ID : 3<br>
Duration : 3 min 51 s<br>
Bit rate mode : Constant<br>
Bit rate : 384 kb/s<br>
Channel(s) : 2 channels<br>
Sampling rate : 48.0 kHz<br>
Frame rate : 41.667 FPS (1152 SPF)<br>
Compression mode : Lossy<br>
Delay relative to video : -272 ms<br>
Stream size : 10.6 MiB (1%)<br>
Language : English</div>
</div><br>
<b>Download</b><br>
<div class="bbCodeBlock bbCodeVfcHH HiddenContent">
<div class="attribution type">Hidden Content:</div>
<blockquote>You must either reply or click 'Like' to see the hidden information contained here.</blockquote>
</div></div>
<div class="messageTextEndMarker">&nbsp;</div>
</blockquote>
</article>]]></description>
                <author><![CDATA[Light88]]></author>
                </item>

                
                <item>
                <title><![CDATA[【HD Live Performances】FEED - Olivia Rodrigo - vampire (Live at The 66th Annual Grammy Awards 2024) FEED HDTV H264 1080i MP2-ilya2129]]></title>
                <link><![CDATA[https://sharemania.us/threads/olivia-rodrigo-vampire-live-at-the-66th-annual-grammy-awards-2024-feed-hdtv-h264-1080i-mp2-ilya2129.237133/]]></link>
                <description><![CDATA[<article>
<blockquote class="messageText SelectQuoteContainer ugc baseHtml">
<div style="text-align: center"><img src="https://i.ibb.co/9gXjngV/Olivia-Rodrigo-vampire-Live-at-The-66th-Annual-Grammy-Awards-2024-FEED-HDTV-H264-1080i-MP2-ilya2129.gif" class="bbCodeImage LbImage" alt="[​IMG]" data-url="https://i.ibb.co/9gXjngV/Olivia-Rodrigo-vampire-Live-at-The-66th-Annual-Grammy-Awards-2024-FEED-HDTV-H264-1080i-MP2-ilya2129.gif" style=""><br>
Original video by <a href="http://sharemania.us/members/ilya2129.78522/" class="internalLink"><b>ilya2129 <img src="styles/default/xenforo/clear.png" class="mceSmilieSprite mceSmilie35" alt=":blush:" title="Blush    :blush:"></b></a><br>
I just splitted the Olivia Rodrigo's performance from it<br>
<br>
<b>Media Info</b><br>
<div class="ToggleTriggerAnchor bbCodeSpoilerContainer">
<button type="button" class="button bbCodeSpoilerButton ToggleTrigger Tooltip JsOnly" data-target="> .SpoilerTarget"><span>Spoiler</span></button>
<div class="SpoilerTarget bbCodeSpoilerText">General<br>
Format : MPEG-TS<br>
File size : 799 MiB<br>
Duration : 3 min 53 s<br>
Overall bit rate mode : Variable<br>
Overall bit rate : 28.7 Mb/s<br>
Frame rate : 25.000 FPS<br>
<br>
Video<br>
ID : 256 (0x100)<br>
Menu ID : 1 (0x1)<br>
Format : AVC<br>
Format/Info : Advanced Video Codec<br>
Format profile : High@L4.1<br>
Format settings : CABAC / 4 Ref Frames<br>
Format settings, CABAC : Yes<br>
Format settings, Reference : 4 frames<br>
Codec ID : 27<br>
Duration : 3 min 53 s<br>
Bit rate : 26.9 Mb/s<br>
Width : 1 920 pixels<br>
Height : 1 080 pixels<br>
Display aspect ratio : 16:9<br>
Frame rate : 25.000 FPS<br>
Color space : YUV<br>
Chroma subsampling : 4:2:0<br>
Bit depth : 8 bits<br>
Scan type : Interlaced<br>
Scan type, store method : Separated fields<br>
Scan order : Top Field First<br>
Bits/(Pixel*Frame) : 0.519<br>
Stream size : 748 MiB (94%)<br>
Color range : Limited<br>
Color primaries : BT.709<br>
Transfer characteristics : BT.709<br>
Matrix coefficients : BT.709<br>
<br>
Audio<br>
ID : 257 (0x101)<br>
Menu ID : 1 (0x1)<br>
Format : MPEG Audio<br>
Format version : Version 1<br>
Format profile : Layer 2<br>
Codec ID : 3<br>
Duration : 3 min 53 s<br>
Bit rate mode : Constant<br>
Bit rate : 384 kb/s<br>
Channel(s) : 2 channels<br>
Sampling rate : 48.0 kHz<br>
Frame rate : 41.667 FPS (1152 SPF)<br>
Compression mode : Lossy<br>
Delay relative to video : -280 ms<br>
Stream size : 10.7 MiB (1%)<br>
Language : English</div>
</div><br>
<b>Download</b><br>
<div class="bbCodeBlock bbCodeVfcHH HiddenContent">
<div class="attribution type">Hidden Content:</div>
<blockquote>You must either reply or click 'Like' to see the hidden information contained here.</blockquote>
</div></div>
<div class="messageTextEndMarker">&nbsp;</div>
</blockquote>
</article>]]></description>
                <author><![CDATA[Light88]]></author>
                </item>

                </channel></rss>